<svg width="220" height="48" viewBox="0 0 220 48" fill="none" xmlns="http://www.w3.org/2000/svg">
  <defs>
    <linearGradient id="rover-f" x1="2" y1="2" x2="46" y2="46" gradientUnits="userSpaceOnUse">
      <stop offset="0%" stop-color="#34D399"/>
      <stop offset="100%" stop-color="#059669"/>
    </linearGradient>
  </defs>

  <g>
    <rect x="2" y="2" width="44" height="44" rx="11" fill="url(#rover-f)"/>

    <g stroke="white" stroke-width="3.5" stroke-linecap="round" stroke-linejoin="round" fill="none">
      <path d="M11 12H24"/>
      <path d="M22 12V32"/>
      <path d="M22 32C22 35.5 20 38 16.5 38C14.5 38 13 37 13 36"/>
      <path d="M22 12H30C34.5 12 37 15 37 19C37 23 34.5 26 30 26H22"/>
      <path d="M29 26L39 38"/>
    </g>

    <circle cx="41" cy="9" r="6" fill="#FCD34D" opacity="0.12"/>
    <path d="M41 3.5L42.4 8L47 9.5L42.4 11L41 15.5L39.6 11L35 9.5L39.6 8Z" fill="#FCD34D"/>
    <path d="M34.5 2L35.1 4L37 4.5L35.1 5L34.5 7L33.9 5L32 4.5L33.9 4Z" fill="#FCD34D" opacity="0.6"/>
    <circle cx="45" cy="4" r="1.1" fill="#FCD34D" opacity="0.45"/>
  </g>

  <text x="54" y="33" font-family="system-ui, -apple-system, 'Segoe UI', sans-serif" font-size="24" font-weight="700" fill="#064E3B" letter-spacing="-0.5">
    Role<tspan fill="#10B981">Rover</tspan>
  </text>
</svg>
